<svg xmlns="http://www.w3.org/2000/svg" width="900" height="720" viewBox="0 0 900 720" role="img" aria-label="Doctor portrait illustration">
  <rect width="900" height="720" rx="36" fill="#f2f7fb"/>
  <rect x="70" y="70" width="760" height="580" rx="30" fill="#ffffff" stroke="#dce6ef" stroke-width="3"/>
  <circle cx="450" cy="280" r="140" fill="#e6bf95"/>
  <path d="M300 265c0-95 75-160 150-160s150 65 150 160v150H300Z" fill="#124f78"/>
  <rect x="245" y="390" width="410" height="180" rx="28" fill="#2e8bc0"/>
  <rect x="280" y="430" width="90" height="90" rx="16" fill="#ffffff" opacity="0.92"/>
  <rect x="392" y="430" width="90" height="90" rx="16" fill="#ffffff" opacity="0.92"/>
  <rect x="504" y="430" width="90" height="90" rx="16" fill="#ffffff" opacity="0.92"/>
  <path d="M580 240c30 0 55 24 55 55 0 23-14 43-34 51l-21 10" stroke="#124f78" stroke-width="14" stroke-linecap="round" fill="none"/>
  <circle cx="415" cy="250" r="8" fill="#124f78"/>
  <circle cx="485" cy="250" r="8" fill="#124f78"/>
  <path d="M420 300c25 22 58 22 82 0" stroke="#8a4f28" stroke-width="8" stroke-linecap="round" fill="none"/>
  <rect x="160" y="140" width="240" height="70" rx="16" fill="#124f78" opacity="0.9"/>
  <text x="180" y="183" font-size="34" font-family="Segoe UI, Arial, sans-serif" fill="#ffffff">Surgical Care</text>
</svg>